<?xml version="1.0" encoding="UTF-8"?>
<svg xmlns="http://www.w3.org/2000/svg" xmlns:xlink="http://www.w3.org/1999/xlink" viewBox="0 0 48 48" width="48px" height="48px">
<g id="surface46719422">
<path style=" stroke:none;fill-rule:nonzero;fill:rgb(5.098039%,5.098039%,5.098039%);fill-opacity:1;" d="M 24 48 C 10.746094 48 0 37.253906 0 24 C 0 10.746094 10.746094 0 24 0 C 37.253906 0 48 10.746094 48 24 C 48 37.253906 37.253906 48 24 48 Z M 24 48 "/>
<path style=" stroke:none;fill-rule:nonzero;fill:rgb(100%,100%,100%);fill-opacity:1;" d="M 32.679688 34.421875 L 27.640625 34.421875 C 26.867188 34.421875 26.238281 33.792969 26.238281 33.019531 L 26.238281 27.980469 C 26.238281 27.359375 25.738281 26.859375 25.121094 26.859375 L 22.878906 26.859375 C 22.261719 26.859375 21.761719 27.359375 21.761719 27.980469 L 21.761719 33.019531 C 21.761719 33.792969 21.132812 34.421875 20.359375 34.421875 L 15.320312 34.421875 C 14.546875 34.421875 13.921875 33.792969 13.921875 33.019531 L 13.921875 22.332031 C 13.921875 21.042969 14.511719 19.828125 15.519531 19.03125 L 23.480469 12.757812 C 23.785156 12.519531 24.214844 12.519531 24.519531 12.757812 L 32.480469 19.03125 C 33.492188 19.828125 34.078125 21.042969 34.078125 22.332031 L 34.078125 33.019531 C 34.078125 33.792969 33.453125 34.421875 32.679688 34.421875 Z M 32.679688 34.421875 "/>
</g>
</svg>
