<?xml version="1.0" encoding="UTF-8"?>
<svg xmlns="http://www.w3.org/2000/svg" xmlns:xlink="http://www.w3.org/1999/xlink" viewBox="0 0 48 48" width="48px" height="48px">
<g id="surface46706834">
<path style=" stroke:none;fill-rule:nonzero;fill:rgb(1.960784%,1.960784%,1.960784%);fill-opacity:1;" d="M 24 48 C 10.746094 48 0 37.253906 0 24 C 0 10.746094 10.746094 0 24 0 C 37.253906 0 48 10.746094 48 24 C 48 37.253906 37.253906 48 24 48 Z M 24 48 "/>
<path style=" stroke:none;fill-rule:nonzero;fill:rgb(100%,100%,100%);fill-opacity:1;" d="M 36.554688 39.296875 L 29.265625 39.296875 C 28.144531 39.296875 27.238281 38.386719 27.238281 37.269531 L 27.238281 29.980469 C 27.238281 29.085938 26.515625 28.359375 25.621094 28.359375 L 22.378906 28.359375 C 21.484375 28.359375 20.761719 29.085938 20.761719 29.980469 L 20.761719 37.269531 C 20.761719 38.386719 19.855469 39.296875 18.734375 39.296875 L 11.445312 39.296875 C 10.328125 39.296875 9.421875 38.386719 9.421875 37.269531 L 9.421875 21.808594 C 9.421875 19.949219 10.273438 18.1875 11.734375 17.035156 L 23.246094 7.964844 C 23.6875 7.617188 24.3125 7.617188 24.75 7.964844 L 36.265625 17.035156 C 37.726562 18.1875 38.578125 19.945312 38.578125 21.808594 L 38.578125 37.269531 C 38.578125 38.386719 37.671875 39.296875 36.554688 39.296875 Z M 36.554688 39.296875 "/>
</g>
</svg>
